<svg xmlns="http://www.w3.org/2000/svg" viewBox="0 0 512 512">
  <defs>
    <linearGradient id="frame" x1="0%" y1="0%" x2="100%" y2="100%">
      <stop offset="0%" stop-color="#F7D67B" />
      <stop offset="45%" stop-color="#F2C94C" />
      <stop offset="100%" stop-color="#B77A19" />
    </linearGradient>
    <radialGradient id="bg" cx="50%" cy="32%" r="75%">
      <stop offset="0%" stop-color="#20160D" />
      <stop offset="100%" stop-color="#050505" />
    </radialGradient>
    <linearGradient id="swan" x1="18%" y1="12%" x2="82%" y2="88%">
      <stop offset="0%" stop-color="#FFF2B8" />
      <stop offset="48%" stop-color="#F2C94C" />
      <stop offset="100%" stop-color="#A86B17" />
    </linearGradient>
  </defs>

  <rect x="18" y="18" width="476" height="476" rx="108" fill="url(#bg)" />
  <rect x="28" y="28" width="456" height="456" rx="96" fill="none" stroke="url(#frame)" stroke-width="10" />

  <path
    d="M322 108c75 8 123 62 123 133 0 95-69 155-175 166-8 1-13-9-7-15 37-34 57-70 57-112 0-48-29-82-89-107-9-4-8-17 2-20 31-11 60-28 89-45z"
    fill="none"
    stroke="url(#frame)"
    stroke-width="22"
    stroke-linecap="round"
    stroke-linejoin="round"
  />

  <path
    d="M168 217c12-52 52-88 106-88 49 0 85 27 85 70 0 30-17 58-49 86-32 28-45 47-45 70 0 19 9 39 29 60 4 4 0 11-6 10-76-12-124-67-124-141 0-24 1-41 4-67z"
    fill="url(#swan)"
  />

  <path
    d="M279 127c-29 0-55 17-65 44 27 11 45 23 54 39 9 14 11 29 7 48l16 12c40-31 59-59 59-89 0-34-26-54-71-54z"
    fill="#1A1108"
    opacity="0.24"
  />

  <path
    d="M172 238c16-4 31-13 42-28 15-19 38-28 67-28-10 18-25 36-45 52-19 15-41 23-64 24z"
    fill="#111"
  />

  <path
    d="M187 231c14-29 39-44 75-44-14 29-39 44-75 44z"
    fill="#F3DB86"
  />

  <circle cx="241" cy="173" r="9" fill="#0A0A0A" />
  <circle cx="244" cy="170" r="3" fill="#FFF6CC" />

  <path
    d="M232 314c50 11 92 39 125 83-55-12-95-22-122-32-26-10-48-25-65-46 20-8 41-10 62-5z"
    fill="url(#swan)"
  />
  <path
    d="M213 356c43 11 78 28 105 51-46-8-81-16-105-25-24-10-45-24-62-43 21-3 42-1 62 7z"
    fill="#D49A29"
  />

  <path
    d="M86 403c43-24 85-34 126-30 42 3 88 18 138 44-55 14-108 21-160 20-52-1-86-12-104-34z"
    fill="none"
    stroke="#7B5218"
    stroke-width="4"
    opacity="0.6"
  />
</svg>
